# xmcd
#
# Track frame offsets: 
#        150
#        19747
#        37257
#        58927
#        78790
#        96867
#        124755
#        142885
#        162445
#        184720
#        201417
#        218115
#        241270
#        270345
#
# Disc length: 3963 seconds
#
# Revision: 2
# Processed by: cddbd v1.5.2PL0 Copyright (c) Steve Scherf et al.
# Submitted via: ExactAudioCopy v0.95b4
#
DISCID=c30f790e
DTITLE=Tommi Läntinen - Punainen Graniitti
DYEAR=1997
DGENRE=Pop
TTITLE0=Olen Onnellinen
TTITLE1=Rakkauden Veturi
TTITLE2=Rööperin Kuu
TTITLE3=Nyt Ollaan Näin
TTITLE4=Aika On Hiekkaa
TTITLE5=Janoinen Sydän
TTITLE6=Korkealla Ja Kovaa
TTITLE7=Hei Hei Kulta
TTITLE8=Äiti Maa
TTITLE9=Baby Blue
TTITLE10=Tyttö Tokion
TTITLE11=Se Yö
TTITLE12=Korkeuteen
TTITLE13=Punainen Graniitti
EXTD=
EXTT0=
EXTT1=
EXTT2=
EXTT3=
EXTT4=
EXTT5=
EXTT6=
EXTT7=
EXTT8=
EXTT9=
EXTT10=
EXTT11=
EXTT12=
EXTT13=
PLAYORDER=
